<svg id="Layer_1" data-name="Layer 1" xmlns="http://www.w3.org/2000/svg" width="320" height="320" viewBox="0 0 320 320"><defs><style>.cls-1{fill:#fffef9;}</style></defs><title>Artboard 2</title><rect class="cls-1" x="-9" y="-9" width="338" height="338"/><path d="M50.83,225.06l1.49-7.46q4.91.63,9.17,1t7.9.32q10,0,16.42-2a24.59,24.59,0,0,0,10.78-6.72,44.55,44.55,0,0,0,7.78-12.37l-1.06,5.55.85-108.81-30.72-4v-3h62.08V90q-4.7,1.5-10.13,2.67a83.59,83.59,0,0,1-12.91,1.6v87.47q0,44.79-44.16,44.8-4,0-8.43-.43C57,225.84,54,225.49,50.83,225.06Zm0,0V180.9h2.34l7.9,44.16Z"/><path d="M220.43,87.46q13.22,0,22.5,4.59A32.93,32.93,0,0,1,257.12,105q4.9,8.31,4.91,20.48a43.22,43.22,0,0,1-5.76,22.5,38.66,38.66,0,0,1-16.43,15q-10.67,5.34-24.75,5.34H182.45v-7.26h48.86q11.52-7,16.74-15t5.23-19.09q0-15.57-8.64-23.78t-25.49-8.22h-32V218l30.72,3.84v3.2H152.59v-2.77a38.83,38.83,0,0,1,9.6-2.77,120.65,120.65,0,0,1,14.93-1.5L179,94.5l-26.45-4v-3Z"/></svg>