<?xml version="1.0" standalone="no"?>
<!DOCTYPE svg PUBLIC "-//W3C//DTD SVG 20010904//EN"
 "http://www.w3.org/TR/2001/REC-SVG-20010904/DTD/svg10.dtd">
<svg version="1.0" xmlns="http://www.w3.org/2000/svg"
 width="700.000000pt" height="700.000000pt" viewBox="0 0 700.000000 700.000000"
 preserveAspectRatio="xMidYMid meet">
<metadata>
Created by potrace 1.14, written by Peter Selinger 2001-2017
</metadata>
<g transform="translate(0.000000,700.000000) scale(0.100000,-0.100000)"
fill="#000000" stroke="none">
<path d="M3340 5056 c0 -20 1 -36 3 -36 27 -2 567 -87 570 -91 5 -7 -38 -2687
-43 -2692 -3 -2 -63 -9 -135 -16 -157 -15 -269 -35 -341 -62 -48 -18 -54 -23
-54 -50 l0 -29 715 0 715 0 0 30 c0 17 -6 33 -12 35 -11 4 -640 85 -661 85 -4
0 -6 244 -5 543 l3 542 410 6 c368 6 419 8 497 27 187 45 336 122 455 235 180
171 273 396 273 663 0 443 -217 718 -645 817 -86 20 -122 21 -917 24 l-828 4
0 -35z m1745 -170 c125 -38 199 -80 275 -156 74 -74 129 -173 157 -285 25
-101 24 -335 -1 -430 -50 -192 -164 -338 -373 -482 l-77 -53 -488 0 -488 0 0
721 0 720 453 -3 452 -4 90 -28z"/>
<path d="M1610 5050 c0 -35 -33 -28 363 -79 164 -22 300 -41 302 -43 3 -2 0
-524 -6 -1159 l-10 -1154 -26 -45 c-45 -80 -130 -184 -180 -222 -131 -100
-264 -132 -540 -133 -105 0 -194 3 -198 6 -3 4 -38 188 -78 410 l-72 404 -28
3 -27 3 0 -480 0 -481 23 -5 c136 -29 470 -35 612 -10 422 74 654 327 705 770
6 56 10 472 10 1096 l0 1006 81 7 c99 8 267 40 354 67 57 17 65 23 65 44 l0
25 -675 0 -675 0 0 -30z"/>
</g>
</svg>
